<svg height="512pt" viewBox="0 -2 512 512" width="512pt" xmlns="http://www.w3.org/2000/svg"><path d="m461.777344 172.03125-31.378906-54.464844 10.355468-52.351562-113.089844-65.214844-40.238281 35.199219h-62.851562l-40.222657-35.199219-113.039062 65.214844 10.289062 52.351562-31.441406 54.402344-50.160156 17.152344v130.558594l50.222656 17.089843 31.441406 54.398438-10.351562 52.351562 113.023438 65.296875 40.238281-35.199218h62.851562l40.222657 35.199218 113.039062-65.296875-10.289062-52.289062 31.441406-54.398438 50.160156-17.152343v-130.558594zm-205.777344 162.367188c-44.183594 0-80-35.816407-80-80 0-44.179688 35.816406-80 80-80s80 35.820312 80 80c-.054688 44.164062-35.839844 79.949218-80 80zm0 0" fill="#ffda6b"/><path d="m256 142.398438c-61.855469 0-112 50.144531-112 112 0 61.859374 50.144531 112 112 112s112-50.140626 112-112c-.070312-61.824219-50.171875-111.929688-112-112zm0 192c-44.183594 0-80-35.816407-80-80 0-44.179688 35.816406-80 80-80s80 35.820312 80 80c-.054688 44.164062-35.839844 79.949218-80 80zm0 0" fill="#f5cd00"/></svg>