<svg width="248" height="154" viewBox="0 0 248 154" fill="none" xmlns="http://www.w3.org/2000/svg">
<path d="M46.4366 151.731C61.5004 141.673 87.3169 110.825 70.0724 67.9054C52.8279 24.9856 22.5076 14.4334 3.76609 34.6593C-3.47591 57.9701 3.53862 109.789 89.5327 130.578C175.527 151.367 205.479 93.9122 209.705 62.5863" stroke="#47565B" stroke-dasharray="15 15"/>
<path d="M211.69 10.9001L184.747 51.3921C184.411 51.904 184.237 52.5056 184.249 53.118C184.26 53.7303 184.456 54.3249 184.811 54.8239C185.167 55.3262 185.668 55.7066 186.248 55.9134C186.827 56.1202 187.456 56.1432 188.049 55.9793L211.032 49.7042C211.248 49.6459 211.478 49.6635 211.683 49.7542L233.44 59.461C234.001 59.7134 234.626 59.7866 235.23 59.6706C235.834 59.5546 236.388 59.255 236.816 58.8128C237.306 58.3044 237.606 57.642 237.665 56.9377C237.702 56.4216 237.612 55.9042 237.402 55.431L216.95 11.3036C216.721 10.82 216.367 10.4057 215.926 10.1025C215.484 9.79934 214.971 9.61811 214.437 9.57716C213.903 9.53622 213.368 9.63699 212.886 9.8693C212.403 10.1016 211.991 10.4572 211.69 10.9001ZM215.122 12.1461L235.574 56.2734C235.655 56.4615 235.678 56.6694 235.64 56.8705C235.602 57.0717 235.505 57.2569 235.361 57.4027C235.218 57.5485 235.034 57.6482 234.833 57.6891C234.633 57.73 234.424 57.7101 234.235 57.6322L212.503 47.9273L213.679 32.5966C213.7 32.3308 213.614 32.0679 213.44 31.8656C213.267 31.6632 213.02 31.5381 212.754 31.5177C212.488 31.4974 212.225 31.5834 212.023 31.7569C211.821 31.9304 211.696 32.1771 211.675 32.4429L210.499 47.7736L187.542 54.0506C187.344 54.1078 187.134 54.1014 186.94 54.0322C186.746 53.9631 186.579 53.8348 186.463 53.6655C186.321 53.4713 186.251 53.2348 186.262 52.995C186.272 52.8195 186.328 52.6497 186.426 52.5036L213.368 12.0116C213.472 11.8683 213.61 11.754 213.77 11.6796C213.93 11.6052 214.107 11.5732 214.283 11.5867C214.459 11.6002 214.629 11.6588 214.776 11.7567C214.922 11.8547 215.042 11.9888 215.122 12.1461Z" fill="#47565B"/>
</svg>
