<svg width="227" height="241" viewBox="0 0 227 241" fill="none" xmlns="http://www.w3.org/2000/svg">
<g clip-path="url(#clip0_1231_160)">
<path d="M207.932 205.577L210.675 206.684M191.576 167.069L192.684 164.326M168.316 224.675L169.424 221.932M193.584 225.307L191.949 221.456M211.306 181.416L207.456 183.052M149.694 207.585L153.545 205.949M167.416 163.694L169.051 167.545M150.325 182.317L153.068 183.424M177.515 185.712L185.452 178.372C185.672 178.159 185.949 178.014 186.25 177.956C186.551 177.897 186.862 177.927 187.146 178.042C187.43 178.156 187.674 178.351 187.85 178.602C188.026 178.853 188.125 179.149 188.135 179.455L188.751 190.248L197.72 195.571C198.871 196.252 198.722 198.029 197.47 198.577L187.705 202.833L185.316 213.453C185.009 214.819 183.332 215.275 182.479 214.228L175.828 206.071L165.378 207.323C164.037 207.484 163.147 205.991 163.875 204.796L169.528 195.497L165.457 185.651C164.937 184.388 166.063 183.005 167.365 183.314L177.515 185.712Z" stroke="#ADADAD" stroke-width="1.5" stroke-linecap="round" stroke-linejoin="round"/>
</g>
<g clip-path="url(#clip1_1231_160)">
<path d="M151.568 58.0866L149.78 57.2514C148.359 56.5872 147.259 55.3854 146.723 53.9104C146.188 52.4354 146.26 50.8081 146.924 49.3864L149.29 44.3235C149.985 42.836 147.108 39.6765 147.108 39.6765C147.108 39.6765 151.377 39.8556 152.072 38.368L154.438 33.3051C155.102 31.8834 156.304 30.7838 157.779 30.2482C159.254 29.7126 160.881 29.7849 162.303 30.4491L164.09 31.2844M162.289 63.0956L164.077 63.9309C164.781 64.2598 165.542 64.4468 166.319 64.4813C167.095 64.5157 167.87 64.397 168.601 64.1318C169.331 63.8666 170.002 63.4601 170.575 62.9356C171.148 62.4111 171.613 61.7789 171.942 61.0749L174.307 56.012C175.002 54.5245 179.271 54.7035 179.271 54.7035C179.271 54.7035 176.395 51.544 177.09 50.0565L179.455 44.9936C180.119 43.5719 180.192 41.9446 179.656 40.4696C179.12 38.9946 178.021 37.7929 176.599 37.1286L174.811 36.2934" stroke="#ADADAD" stroke-width="1.5" stroke-linecap="round" stroke-linejoin="round"/>
<path d="M197.831 35.9465L176.793 80.9742C176.594 81.4008 176.233 81.7306 175.791 81.8913C175.348 82.052 174.86 82.0303 174.433 81.831L129.406 60.7933C128.979 60.594 128.649 60.2335 128.488 59.791C128.328 59.3485 128.349 58.8603 128.549 58.4338L149.587 13.406C149.786 12.9795 150.146 12.6496 150.589 12.4889C151.031 12.3283 151.52 12.3499 151.946 12.5492L196.974 33.587C197.4 33.7862 197.73 34.1468 197.891 34.5893C198.052 35.0318 198.03 35.52 197.831 35.9465Z" stroke="#ADADAD" stroke-width="1.5" stroke-linecap="round" stroke-linejoin="round"/>
</g>
<g clip-path="url(#clip2_1231_160)">
<path d="M57.5779 209.254C58.3101 208.972 58.9003 208.411 59.2187 207.694C59.5371 206.977 59.5576 206.162 59.2756 205.43C58.9937 204.698 58.4325 204.108 57.7154 203.789C56.9983 203.471 56.1841 203.45 55.4519 203.732C54.7197 204.014 54.1295 204.576 53.8111 205.293C53.4927 206.01 53.4722 206.824 53.7541 207.556C54.036 208.288 54.5973 208.879 55.3144 209.197C56.0315 209.515 56.8457 209.536 57.5779 209.254ZM16.7862 177.409C17.5184 177.128 18.1086 176.566 18.427 175.849C18.7454 175.132 18.7658 174.318 18.4839 173.586C18.202 172.854 17.6408 172.263 16.9237 171.945C16.2066 171.627 15.3924 171.606 14.6602 171.888C13.928 172.17 13.3378 172.731 13.0194 173.448C12.701 174.165 12.6805 174.979 12.9624 175.712C13.2443 176.444 13.8056 177.034 14.5227 177.352C15.2398 177.671 16.054 177.691 16.7862 177.409ZM27.4161 205.017C28.1483 204.735 28.7385 204.174 29.0569 203.457C29.3753 202.74 29.3958 201.925 29.1138 201.193C28.8319 200.461 28.2707 199.871 27.5536 199.552C26.8365 199.234 26.0223 199.214 25.2901 199.496C24.5579 199.777 23.9677 200.339 23.6493 201.056C23.3309 201.773 23.3104 202.587 23.5923 203.319C23.8743 204.051 24.4355 204.642 25.1526 204.96C25.8697 205.278 26.6839 205.299 27.4161 205.017Z" fill="#ADADAD" stroke="#ADADAD" stroke-width="1.5" stroke-linecap="round" stroke-linejoin="round"/>
<path d="M65.792 156.489L75.6715 182.148C75.7855 182.444 75.8183 182.764 75.7664 183.077C75.7145 183.39 75.5799 183.683 75.3765 183.926L57.146 205.737C56.9527 205.967 56.7038 206.145 56.4227 206.254C56.1416 206.362 55.8376 206.397 55.5393 206.355L27.389 202.403C27.0751 202.359 26.7787 202.232 26.5306 202.035C26.2824 201.837 26.0916 201.577 25.9778 201.282L16.0984 175.623C15.985 175.328 15.9527 175.007 16.0048 174.695C16.0568 174.383 16.1914 174.091 16.3945 173.848L34.6238 152.034C34.8172 151.804 35.0661 151.626 35.3472 151.517C35.6283 151.409 35.9323 151.374 36.2306 151.416L64.382 155.371C64.6953 155.415 64.9913 155.542 65.2392 155.738C65.4871 155.935 65.678 156.194 65.792 156.489Z" stroke="#ADADAD" stroke-width="1.5" stroke-linecap="round" stroke-linejoin="round"/>
<path d="M17.4933 174.899L44.9066 178.749C45.2054 178.791 45.51 178.756 45.7917 178.648C46.0733 178.539 46.3226 178.361 46.5161 178.129L64.3319 156.814M55.4518 203.732L45.8849 178.886" stroke="#ADADAD" stroke-width="1.5" stroke-linecap="round" stroke-linejoin="round"/>
</g>
<defs>
<clipPath id="clip0_1231_160">
<rect width="71" height="71" fill="white" transform="translate(160.874 148.291) rotate(21.9878)"/>
</clipPath>
<clipPath id="clip1_1231_160">
<rect width="71" height="71" fill="white" transform="translate(146.054 0.000488281) rotate(25.0428)"/>
</clipPath>
<clipPath id="clip2_1231_160">
<rect width="71" height="71" fill="white" transform="translate(0 158.512) rotate(-21.0585)"/>
</clipPath>
</defs>
</svg>
