<svg width="231" height="179" viewBox="0 0 231 179" fill="none" xmlns="http://www.w3.org/2000/svg">
<path d="M182.732 50.4855L185.744 88.7686M165.837 64.5598L159.681 77.8461L172.968 84.0017M196.388 53.3543L209.675 59.5099L203.519 72.7962" stroke="#ADADAD" stroke-width="1.5" stroke-linecap="round" stroke-linejoin="round"/>
<g clip-path="url(#clip0_1231_159)">
<path d="M45.7783 161.518L35.5917 121.373C35.2057 119.852 35.4398 118.24 36.2424 116.892C37.045 115.544 38.3504 114.569 39.8714 114.183L78.2953 104.433C78.7516 104.318 79.2352 104.388 79.6398 104.629C80.0443 104.869 80.3366 105.261 80.4524 105.717L89.9943 143.321" stroke="#ADADAD" stroke-width="1.5" stroke-linecap="round"/>
<path d="M45.6062 112.728L51.4271 135.668L57.4316 129.261L65.7644 132.03L59.9435 109.09" stroke="#ADADAD" stroke-width="1.5" stroke-linecap="round" stroke-linejoin="round"/>
<path d="M50.0579 154.328L90.2023 144.141M52.9683 165.798L93.1127 155.611" stroke="#ADADAD" stroke-width="1.5" stroke-linecap="round"/>
<path d="M52.9684 165.798C51.4474 166.184 49.8353 165.949 48.4869 165.147C47.1385 164.344 46.1642 163.039 45.7782 161.518C45.3923 159.997 45.6263 158.385 46.4289 157.036C47.2315 155.688 48.5369 154.714 50.0579 154.328" stroke="#ADADAD" stroke-width="1.5" stroke-linecap="round" stroke-linejoin="round"/>
</g>
<g clip-path="url(#clip1_1231_159)">
<path d="M18.0007 50.7315L35.1902 27.8247C35.3555 27.6046 35.5697 27.4261 35.8158 27.303C36.062 27.18 36.3334 27.1159 36.6086 27.1158L65.249 27.1233C65.5785 27.1236 65.9014 27.2156 66.1816 27.3889C66.4617 27.5623 66.6881 27.8102 66.8354 28.1049C66.9827 28.3996 67.045 28.7295 67.0155 29.0576C66.9859 29.3857 66.8656 29.6992 66.668 29.9628L49.4785 52.8696C49.3132 53.0896 49.099 53.2682 48.8529 53.3912C48.6067 53.5142 48.3353 53.5783 48.0601 53.5784L19.4197 53.5709C19.0902 53.5707 18.7673 53.4787 18.4871 53.3054C18.207 53.132 17.9806 52.8841 17.8333 52.5894C17.686 52.2947 17.6237 51.9648 17.6532 51.6367C17.6828 51.3085 17.8031 50.9951 18.0007 50.7315Z" stroke="#ADADAD" stroke-width="1.5" stroke-linecap="round" stroke-linejoin="round"/>
<path d="M76.7333 36.3855L72.1047 27.1235L65.4897 27.122M25.7938 53.5736L32.9508 67.8954C33.451 68.8968 34.225 69.7357 35.1829 70.3149C36.1408 70.894 37.2434 71.1895 38.3625 71.167L54.7335 70.8372C55.6114 70.8196 56.4743 70.6068 57.2598 70.2143C58.0452 69.8218 58.7334 69.2594 59.2745 68.5679L69.3666 55.6734C70.0564 54.7918 70.482 53.7327 70.5939 52.6189C70.7059 51.5051 70.4996 50.3825 69.999 49.3813L62.842 35.0595" stroke="#ADADAD" stroke-width="1.5" stroke-linecap="round" stroke-linejoin="round"/>
</g>
<defs>
<clipPath id="clip0_1231_159">
<rect width="71" height="71" fill="white" transform="translate(20.4839 109.947) rotate(-14.2382)"/>
</clipPath>
<clipPath id="clip1_1231_159">
<rect width="71" height="71" fill="white" transform="translate(0 31.7384) rotate(-26.5527)"/>
</clipPath>
</defs>
</svg>
