<svg width="71" height="71" viewBox="0 0 71 71" fill="none" xmlns="http://www.w3.org/2000/svg">
<path d="M7.61174 25.0364L33.228 12.2298C33.4742 12.1068 33.7456 12.0428 34.0208 12.0428C34.296 12.0428 34.5674 12.1068 34.8136 12.2298L60.4298 25.0393C60.7244 25.1868 60.9721 25.4134 61.1453 25.6937C61.3184 25.9741 61.4101 26.297 61.4101 26.6265C61.4101 26.9559 61.3184 27.2789 61.1453 27.5592C60.9721 27.8395 60.7244 28.0661 60.4298 28.2136L34.8136 41.0203C34.5674 41.1432 34.296 41.2072 34.0208 41.2072C33.7456 41.2072 33.4742 41.1432 33.228 41.0203L7.61174 28.2107C7.31715 28.0632 7.06942 27.8366 6.89629 27.5563C6.72317 27.2759 6.63147 26.953 6.63147 26.6235C6.63147 26.2941 6.72317 25.9711 6.89629 25.6908C7.06942 25.4105 7.31715 25.1839 7.61174 25.0364Z" stroke="#38464B" stroke-width="1.5" stroke-linecap="round" stroke-linejoin="round"/>
<path d="M66.5625 38.4584V28.1042L60.6458 25.1459M13.3125 31.0625V47.073C13.3123 48.1924 13.6296 49.2889 14.2276 50.2351C14.8256 51.1814 15.6798 51.9385 16.6909 52.4188L31.4826 59.4418C32.2757 59.8185 33.1428 60.0139 34.0208 60.0139C34.8989 60.0139 35.7659 59.8185 36.5591 59.4418L51.3507 52.4188C52.3619 51.9385 53.216 51.1814 53.8141 50.2351C54.4121 49.2889 54.7294 48.1924 54.7292 47.073V31.0625" stroke="#38464B" stroke-width="1.5" stroke-linecap="round" stroke-linejoin="round"/>
</svg>
